<?xml version="1.0" encoding="UTF-8"?>
<svg version="1.1" xmlns="http://www.w3.org/2000/svg" width="108" height="96">
<path d="M0 0 C6.85035935 5.39627364 10.83982816 14.49997183 12.25 22.9375 C13.614504 39.27364515 11.18634213 61.01793923 0.5 74.0625 C-6.86557507 81.55338731 -15.45042269 83.00152496 -25.54296875 83.16796875 C-27.75 82.9375 -27.75 82.9375 -29.75 80.9375 C-29.19444444 76.38194444 -29.19444444 76.38194444 -27.75 74.9375 C-25.73088714 74.80407845 -23.70938452 74.70624679 -21.6875 74.625 C-15.09215903 74.14100455 -10.19399574 73.16856052 -5.296875 68.57421875 C2.76017932 58.79411968 4.80707661 42.33561034 4.09765625 29.9375 C3.18819017 21.34521091 1.32746661 11.70370201 -5.75 5.9375 C-16.8190168 1.25148766 -28.48871983 1.84570678 -39.671875 5.66796875 C-46.89045897 8.64517661 -52.9056212 12.82366855 -58.75 17.9375 C-59.41 18.2675 -60.07 18.5975 -60.75 18.9375 C-61.4364278 37.68753938 -61.18626835 57.58099143 -49.046875 73.1171875 C-47.75 74.9375 -47.75 74.9375 -48.0625 77.1875 C-48.289375 77.765 -48.51625 78.3425 -48.75 78.9375 C-51.225 79.4325 -51.225 79.4325 -53.75 79.9375 C-58.87640145 73.97589831 -62.46079108 68.47322206 -64.75 60.9375 C-65.12253906 59.73222656 -65.49507812 58.52695312 -65.87890625 57.28515625 C-68.54207083 47.69616427 -69.11199669 38.37072616 -69.125 28.4375 C-69.12661133 27.25687988 -69.12822266 26.07625977 -69.12988281 24.85986328 C-68.90378755 7.09128755 -68.90378755 7.09128755 -64.75 2.9375 C-62.125 3.3125 -62.125 3.3125 -59.75 3.9375 C-59.42 5.2575 -59.09 6.5775 -58.75 7.9375 C-57.96625 7.215625 -57.1825 6.49375 -56.375 5.75 C-41.735616 -6.32407138 -16.64583054 -10.16044202 0 0 Z " fill="#4D4346" transform="translate(79.75,5.0625)"/>
<path d="M0 0 C2.4375 0.1875 2.4375 0.1875 3.4375 1.1875 C4.29066324 5.87989781 2.16627245 8.60462524 -0.37109375 12.3203125 C-1.72926317 14.28159541 -1.72926317 14.28159541 -2.5625 17.1875 C-1.41910156 17.17589844 -0.27570312 17.16429688 0.90234375 17.15234375 C2.39322754 17.14296712 3.88411309 17.13386679 5.375 17.125 C6.12974609 17.11662109 6.88449219 17.10824219 7.66210938 17.09960938 C9.58744313 17.09097559 11.51285581 17.13525667 13.4375 17.1875 C14.4375 18.1875 14.4375 18.1875 14.5 20.75 C14.479375 21.554375 14.45875 22.35875 14.4375 23.1875 C9.63930597 25.74653682 4.73552777 25.57362745 -0.5625 25.1875 C-1.5525 24.8575 -2.5425 24.5275 -3.5625 24.1875 C-3.2325 26.1675 -2.9025 28.1475 -2.5625 30.1875 C-1.17224609 30.17009766 -1.17224609 30.17009766 0.24609375 30.15234375 C1.44363281 30.14332031 2.64117187 30.13429688 3.875 30.125 C5.06996094 30.11339844 6.26492187 30.10179688 7.49609375 30.08984375 C10.4375 30.1875 10.4375 30.1875 11.4375 31.1875 C11.5625 33.6875 11.5625 33.6875 11.4375 36.1875 C9.05151976 38.57348024 3.0747638 37.42108043 -0.125 37.4375 C-1.10275391 37.458125 -2.08050781 37.47875 -3.08789062 37.5 C-9.75495552 37.53572439 -15.92934295 37.19291207 -21.29907227 32.75097656 C-21.71600342 32.2350293 -22.13293457 31.71908203 -22.5625 31.1875 C-22.25 28.5 -22.25 28.5 -21.5625 26.1875 C-20.469375 26.3525 -19.37625 26.5175 -18.25 26.6875 C-14.68724127 27.25468184 -14.68724127 27.25468184 -11.5625 27.1875 C-11.5625 25.5375 -11.5625 23.8875 -11.5625 22.1875 C-12.17738281 21.99414062 -12.79226562 21.80078125 -13.42578125 21.6015625 C-14.23402344 21.34117188 -15.04226562 21.08078125 -15.875 20.8125 C-16.67550781 20.55726562 -17.47601563 20.30203125 -18.30078125 20.0390625 C-20.5625 19.1875 -20.5625 19.1875 -23.5625 17.1875 C-23.8125 14.625 -23.8125 14.625 -23.5625 12.1875 C-23.2325 11.8575 -22.9025 11.5275 -22.5625 11.1875 C-18.19790624 11.60717248 -14.58350348 12.48897267 -10.5625 14.1875 C-10.15257812 13.34445313 -9.74265625 12.50140625 -9.3203125 11.6328125 C-8.51207031 9.98925781 -8.51207031 9.98925781 -7.6875 8.3125 C-7.15382813 7.22195312 -6.62015625 6.13140625 -6.0703125 5.0078125 C-3.53114014 0.25837611 -3.53114014 0.25837611 0 0 Z " fill="#4B4244" transform="translate(45.5625,12.8125)"/>
<path d="M0 0 C6.35381342 0.09120306 11.97043559 1.16969648 16.5 5.8125 C19.02298025 9.91234291 19.49728739 12.36000736 19 17.25 C15.91672563 21.33080431 13.00979633 23.26768699 8 24.25 C2.36712775 24.34030657 -1.70147127 23.04869981 -6 19.25 C-7.89017805 15.89645829 -9.06399876 13.56197457 -8.875 9.6875 C-5.43810549 0.11329386 -5.43810549 0.11329386 0 0 Z M-2 9.25 C-1.65447612 11.80687669 -1.24912987 13.82501375 0.0625 16.0625 C3.19069003 17.97977776 6.43527672 17.82926753 10 17.25 C12.009245 15.91641006 12.009245 15.91641006 13 14.25 C11.54600704 10.41674584 9.6919885 8.96720395 6 7.25 C2.19558901 6.79709393 1.28337691 7.06108206 -2 9.25 Z " fill="#504649" transform="translate(33,50.75)"/>
</svg>
